<?xml version="1.0"?>
<svg xmlns="http://www.w3.org/2000/svg" height="512px" viewBox="0 0 512 512" width="512px"><path d="m405.878906 0c-29.660156 29.660156 3.519532-3.542969-37.96875 38.066406-17.304687 17.308594-24.359375 41.035156-21.171875 63.585938l-153.214843 153.210937-82.933594-41.464843-7.242188 4.824218c-40.019531 26.683594-70.34375 64.5-87.6875 109.363282-17.34375 44.863281-20.347656 93.246093-8.679687 139.910156l7.503906 30.019531 30.023437 7.503906c18.640626 4.660157 37.550782 6.980469 56.40625 6.980469 28.34375 0 56.558594-5.242188 83.5-15.660156 44.863282-17.34375 82.683594-47.667969 109.363282-87.691406l4.828125-7.238282-41.46875-82.933594 153.152343-153.15625c15.226563 2.183594 30.589844-.359374 44.257813-7.21875 14.476563-7.265624 18.886719-13.515624 57.402344-52.03125zm-211.214844 338.539062c-12.535156 12.535157-28.207031 20.792969-45.242187 24.042969 3.246094-17.039062 11.503906-32.710937 24.039063-45.246093l44.226562-44.230469 21.207031 21.207031zm69.242188 60.527344c-48.195312 66.011719-132.316406 96.816406-212.125 76.863282l-12.566406-3.140626-3.140625-12.566406c-19.953125-79.808594 10.851562-163.933594 76.859375-212.125l58.238281 29.117188-18.914063 18.917968c-37.515624 37.511719-34.378906 79.777344-34.378906 97.992188 17.636719 0 60.375 3.238281 97.992188-34.378906l18.914062-18.917969zm-3.808594-125.957031-21.203125-21.207031 119.480469-119.484375c2.730469 4.128906 5.90625 8.039062 9.539062 11.671875 3.613282 3.613281 7.523438 6.796875 11.660157 9.539062zm181-141.808594c-17.351562 8.703125-38.242187 5.324219-51.980468-8.417969-17.539063-17.535156-17.539063-46.074218-.003907-63.613281.125-.121093 9.148438-9.144531 16.792969-16.832031l63.636719 63.632812c-17.230469 17.230469-20.089844 21.035157-28.445313 25.230469zm0 0" fill="#595959"/></svg>
